<svg width="36" height="36" viewBox="0 0 36 36" fill="none" xmlns="http://www.w3.org/2000/svg">
<path d="M35.5991 15.6644H31.5261C31.2948 15.6644 31.0736 15.7644 30.9177 15.9394L19.9108 28.554V0.399985C19.9108 0.179993 19.7297 0 19.5085 0H16.4915C16.2703 0 16.0892 0.179993 16.0892 0.399985V28.554L5.0823 15.9394C4.93145 15.7644 4.7102 15.6644 4.47387 15.6644H0.40095C0.0590258 15.6644 -0.127021 16.0694 0.0992522 16.3244L16.7882 35.4487C16.939 35.6218 17.1255 35.7605 17.3351 35.8557C17.5446 35.9508 17.7722 36 18.0025 36C18.2328 36 18.4605 35.9508 18.67 35.8557C18.8795 35.7605 19.066 35.6218 19.2168 35.4487L35.9007 16.3244C36.127 16.0644 35.941 15.6644 35.5991 15.6644Z" fill="#FFC300"/>
</svg>
