<svg width="32" height="32" viewBox="0 0 32 32" fill="none" xmlns="http://www.w3.org/2000/svg">
<path d="M11.9997 22.6667H15.9997M5.33301 5.33341V26.6667C5.33301 27.374 5.61396 28.0523 6.11406 28.5524C6.61415 29.0525 7.29243 29.3334 7.99967 29.3334H23.9997C24.7069 29.3334 25.3852 29.0525 25.8853 28.5524C26.3854 28.0523 26.6663 27.374 26.6663 26.6667V11.1227C26.6663 10.7675 26.5953 10.4158 26.4574 10.0884C26.3196 9.76098 26.1177 9.4644 25.8637 9.21608L19.9437 3.42675C19.4455 2.93962 18.7764 2.66683 18.0797 2.66675H7.99967C7.29243 2.66675 6.61415 2.9477 6.11406 3.4478C5.61396 3.94789 5.33301 4.62617 5.33301 5.33341V5.33341ZM11.9997 17.3334H19.9997H11.9997Z" stroke="#FFC300" stroke-width="2" stroke-linecap="round" stroke-linejoin="round"/>
<path d="M18.666 2.66675V8.00008C18.666 8.70733 18.947 9.3856 19.4471 9.8857C19.9472 10.3858 20.6254 10.6667 21.3327 10.6667H26.666" stroke="#FFC300" stroke-width="2" stroke-linejoin="round"/>
</svg>
