<svg width="32" height="32" viewBox="0 0 32 32" fill="none" xmlns="http://www.w3.org/2000/svg">
<path d="M2.66699 8.00008C2.66699 6.58559 3.2289 5.22904 4.22909 4.22885C5.22928 3.22865 6.58584 2.66675 8.00033 2.66675H24.0003C25.4148 2.66675 26.7714 3.22865 27.7716 4.22885C28.7718 5.22904 29.3337 6.58559 29.3337 8.00008V24.0001C29.3337 25.4146 28.7718 26.7711 27.7716 27.7713C26.7714 28.7715 25.4148 29.3334 24.0003 29.3334H8.00033C6.58584 29.3334 5.22928 28.7715 4.22909 27.7713C3.2289 26.7711 2.66699 25.4146 2.66699 24.0001V8.00008Z" stroke="#FFC300" stroke-width="2" stroke-linecap="round" stroke-linejoin="round"/>
<path d="M11.3333 14.6667C13.1743 14.6667 14.6667 13.1743 14.6667 11.3333C14.6667 9.49238 13.1743 8 11.3333 8C9.49238 8 8 9.49238 8 11.3333C8 13.1743 9.49238 14.6667 11.3333 14.6667Z" stroke="#FFC300" stroke-width="2" stroke-linecap="round" stroke-linejoin="round"/>
<path d="M19.368 16.828L8 29.3333H24.1773C25.5448 29.3333 26.8562 28.7901 27.8232 27.8232C28.7901 26.8562 29.3333 25.5448 29.3333 24.1773V24C29.3333 23.3787 29.1 23.14 28.68 22.68L23.3067 16.82C23.0562 16.5468 22.7516 16.3288 22.4122 16.18C22.0729 16.0311 21.7062 15.9546 21.3356 15.9553C20.965 15.9561 20.5986 16.0341 20.2598 16.1843C19.9211 16.3346 19.6173 16.5538 19.368 16.828V16.828Z" stroke="#FFC300" stroke-width="2" stroke-linecap="round" stroke-linejoin="round"/>
</svg>
