<svg width="30" height="30" viewBox="0 0 30 30" fill="none" xmlns="http://www.w3.org/2000/svg">
<path d="M20.6252 4.68743C20.625 3.58777 21.0116 2.52308 21.7173 1.67962C22.4229 0.836171 23.4027 0.26767 24.4853 0.0735856C25.5678 -0.120499 26.6841 0.0721913 27.6389 0.617944C28.5937 1.1637 29.3262 2.02776 29.7082 3.05896C30.0902 4.09015 30.0974 5.22282 29.7285 6.25878C29.3596 7.29475 28.6382 8.16805 27.6904 8.72588C26.7426 9.28372 25.6289 9.49057 24.5439 9.31026C23.459 9.12994 22.4721 8.57393 21.7558 7.7395L9.15972 13.5887C9.44929 14.5063 9.44929 15.4907 9.15972 16.4083L21.7558 22.2575C22.513 21.377 23.5701 20.8089 24.7223 20.6633C25.8746 20.5177 27.0398 20.805 27.9922 21.4695C28.9447 22.134 29.6165 23.1284 29.8775 24.2599C30.1385 25.3915 29.9701 26.5796 29.4049 27.594C28.8397 28.6085 27.9179 29.377 26.8183 29.7507C25.7187 30.1244 24.5195 30.0766 23.4531 29.6166C22.3868 29.1566 21.5291 28.3171 21.0465 27.2609C20.5638 26.2047 20.4905 25.0069 20.8408 23.8997L8.24474 18.0506C7.62119 18.7772 6.79004 19.2954 5.86311 19.5355C4.93618 19.7757 3.95793 19.7262 3.05996 19.3938C2.16198 19.0614 1.38737 18.4619 0.84031 17.6761C0.293253 16.8904 0 15.9559 0 14.9985C0 14.0411 0.293253 13.1066 0.84031 12.3208C1.38737 11.535 2.16198 10.9356 3.05996 10.6032C3.95793 10.2708 4.93618 10.2213 5.86311 10.4615C6.79004 10.7016 7.62119 11.2198 8.24474 11.9464L20.8408 6.09723C20.6974 5.64105 20.6247 5.16561 20.6252 4.68743Z" fill="#FFC300"/>
</svg>
