<svg width="34" height="34" viewBox="0 0 34 34" fill="none" xmlns="http://www.w3.org/2000/svg">
<path d="M20 15.5V23M5 8H29L26.63 29.33C26.5488 30.0641 26.1996 30.7424 25.6494 31.235C25.0992 31.7277 24.3865 32.0001 23.648 32H10.352C9.61345 32.0001 8.90084 31.7277 8.35062 31.235C7.8004 30.7424 7.45124 30.0641 7.37 29.33L5 8ZM10.0175 3.7205C10.2601 3.20595 10.6441 2.771 11.1245 2.46637C11.605 2.16174 12.1621 1.99999 12.731 2H21.269C21.8381 1.99971 22.3956 2.16132 22.8764 2.46596C23.3571 2.77061 23.7413 3.20572 23.984 3.7205L26 8H8L10.0175 3.7205V3.7205ZM2 8H32H2ZM14 15.5V23V15.5Z" stroke="#FFC300" stroke-width="3" stroke-linecap="round" stroke-linejoin="round"/>
</svg>

